<?xml version="1.0" standalone="no"?>
<!DOCTYPE svg PUBLIC "-//W3C//DTD SVG 20010904//EN"
 "http://www.w3.org/TR/2001/REC-SVG-20010904/DTD/svg10.dtd">
<svg version="1.0" xmlns="http://www.w3.org/2000/svg"
 width="16.000000pt" height="16.000000pt" viewBox="0 0 16.000000 16.000000"
 preserveAspectRatio="xMidYMid meet">
<metadata>
Created by potrace 1.11, written by Peter Selinger 2001-2013
</metadata>
<g transform="translate(0.000000,16.000000) scale(0.001000,-0.001000)"
fill="#000000" stroke="none">
<path d="M3637 15334 c-1 -1 -36 -5 -77 -8 -41 -3 -86 -7 -100 -10 -13 -3 -40
-8 -60 -11 -31 -5 -70 -14 -191 -45 -61 -16 -218 -78 -318 -127 -202 -98 -383
-227 -564 -403 -168 -162 -297 -358 -415 -630 -66 -154 -146 -422 -167 -564
-3 -21 -7 -41 -9 -45 -2 -3 -7 -35 -11 -71 -4 -36 -9 -74 -11 -85 -12 -59 -19
-227 -18 -445 0 -215 5 -312 19 -425 2 -16 7 -57 10 -90 6 -55 37 -246 50
-305 3 -14 10 -50 15 -80 75 -415 254 -899 481 -1301 97 -170 241 -393 307
-474 4 -5 19 -26 32 -46 119 -172 428 -510 676 -739 348 -322 882 -703 1344
-958 30 -17 80 -44 110 -61 98 -55 431 -218 575 -281 77 -34 158 -70 180 -80
120 -55 459 -184 685 -261 36 -12 67 -25 70 -29 11 -16 49 -67 124 -169 120
-162 282 -337 414 -448 31 -26 66 -56 77 -66 86 -78 421 -271 508 -292 15 -4
27 -10 28 -14 0 -3 2 -13 3 -21 2 -8 6 -37 10 -65 3 -27 8 -66 11 -85 2 -19 7
-57 10 -85 4 -27 8 -61 10 -75 2 -14 6 -47 10 -75 3 -27 8 -66 10 -85 9 -64
15 -115 21 -170 3 -30 7 -67 10 -81 2 -15 6 -47 9 -70 3 -24 8 -60 10 -79 3
-19 7 -60 10 -90 3 -30 8 -66 10 -80 5 -31 12 -77 30 -225 8 -68 13 -102 20
-155 8 -61 14 -114 20 -180 3 -30 8 -66 10 -80 3 -14 7 -47 10 -75 3 -27 8
-66 11 -85 3 -19 7 -55 9 -80 3 -25 8 -63 11 -85 13 -80 18 -74 -111 -139
-287 -147 -481 -260 -710 -411 -93 -63 -179 -122 -190 -132 -11 -10 -33 -29
-50 -41 -91 -71 -197 -187 -233 -257 -25 -48 -26 -57 -27 -231 -1 -99 -4 -185
-8 -190 -4 -7 -118 -10 -327 -10 -195 1 -324 -3 -328 -9 -8 -13 -9 -2634 0
-2648 7 -11 4612 -18 4645 -6 15 5 17 109 18 1320 0 723 -2 1321 -6 1329 -6
13 -52 15 -333 14 -179 0 -326 2 -327 5 0 3 -2 89 -3 191 -2 178 -3 187 -28
235 -35 68 -94 134 -212 239 -169 149 -538 378 -976 605 -88 45 -115 63 -113
78 1 10 5 43 8 73 3 31 7 64 9 75 2 11 7 49 11 85 4 36 8 72 10 80 2 8 6 44
10 80 4 36 9 73 10 82 2 9 6 41 9 70 4 29 9 71 12 93 3 22 7 58 9 79 3 21 7
55 10 75 6 41 12 93 20 166 3 28 7 61 10 75 2 14 7 50 10 80 4 30 8 66 10 80
3 14 7 50 10 80 3 30 7 66 10 80 2 14 7 50 10 80 3 30 8 69 11 86 3 17 6 46 8
65 12 101 18 154 21 171 2 11 7 46 10 79 4 33 8 68 10 77 1 9 6 46 10 82 9 91
11 96 53 108 65 20 273 131 372 199 270 187 522 450 740 775 21 31 44 45 160
94 74 32 182 79 239 106 57 26 105 48 108 48 9 0 507 252 545 276 21 13 39 24
41 24 10 0 325 181 454 261 181 112 449 293 603 407 110 81 340 259 350 272 3
3 30 25 60 50 229 187 586 535 780 760 12 14 31 36 43 50 110 124 373 471 432
569 6 9 38 59 71 111 159 245 342 601 449 870 31 80 61 154 66 165 15 35 80
228 94 280 8 28 23 82 34 120 137 484 171 977 97 1403 -42 236 -148 516 -264
692 -260 399 -585 670 -1012 847 -143 60 -353 122 -465 138 -22 3 -53 8 -70
11 -83 14 -389 21 -455 10 -14 -3 -52 -7 -85 -11 -287 -31 -563 -124 -769
-260 l-84 -55 -3195 0 -3194 0 -83 55 c-103 69 -243 137 -372 181 -54 18 -98
31 -98 29 0 -2 -15 1 -32 6 -52 15 -135 31 -233 44 -57 8 -324 23 -328 19z
m263 -679 c36 -4 72 -8 80 -10 8 -1 35 -6 60 -10 128 -21 271 -80 365 -150
130 -96 229 -319 226 -505 -1 -65 -5 -89 -35 -210 -12 -46 -48 -127 -79 -173
-113 -170 -309 -264 -543 -261 -199 3 -292 85 -303 269 -2 27 -4 52 -6 56 -2
3 -152 5 -332 5 l-328 -1 0 -64 c0 -240 105 -489 281 -665 158 -159 362 -267
549 -292 99 -13 300 -7 385 11 14 3 39 8 55 10 150 27 335 105 458 193 26 18
48 30 48 25 3 -16 7 -48 13 -108 4 -33 9 -73 11 -90 2 -16 7 -57 10 -90 3 -33
10 -89 15 -125 5 -36 12 -92 15 -125 4 -33 8 -67 10 -75 2 -8 7 -42 10 -75 3
-33 8 -67 10 -75 3 -8 7 -37 10 -65 3 -27 10 -72 15 -100 5 -27 11 -70 15 -95
3 -25 7 -55 9 -67 3 -11 8 -43 12 -70 3 -26 8 -57 10 -68 2 -10 6 -35 9 -55 3
-20 8 -47 10 -60 6 -30 12 -63 19 -110 3 -19 17 -96 31 -170 14 -74 28 -148
31 -165 17 -99 102 -488 140 -645 25 -102 47 -192 49 -201 3 -15 40 -155 84
-319 82 -308 262 -838 380 -1119 29 -68 51 -125 49 -126 -3 -3 -82 29 -163 65
-73 33 -525 257 -595 295 -440 241 -857 529 -1220 844 -73 64 -315 303 -405
401 -367 400 -651 873 -817 1360 -39 115 -114 397 -122 461 -4 30 -18 119 -31
199 -39 239 -48 670 -20 918 32 279 137 605 251 779 19 28 34 54 34 57 0 16
151 198 215 259 179 173 459 310 683 333 31 4 58 7 60 9 5 4 221 -3 282 -10z
m8574 0 c89 -12 255 -55 311 -80 17 -7 55 -23 85 -35 234 -92 464 -279 610
-497 135 -201 213 -410 247 -663 14 -106 5 -522 -12 -550 -2 -3 -6 -26 -10
-50 -35 -252 -173 -692 -321 -1020 -99 -219 -249 -488 -388 -695 -67 -101
-250 -349 -281 -381 -11 -12 -30 -35 -42 -50 -22 -30 -29 -38 -116 -139 -101
-116 -354 -373 -468 -476 -519 -468 -986 -791 -1721 -1192 -77 -42 -82 -44
-69 -19 26 46 155 397 224 607 80 245 100 311 152 495 38 133 136 515 150 580
2 8 17 76 34 150 23 107 113 539 126 610 5 31 15 86 20 120 3 19 10 58 15 85
5 28 12 64 14 80 3 17 18 113 35 215 16 102 32 210 36 240 4 30 9 62 10 71 2
9 7 40 11 70 4 30 8 61 9 69 1 8 5 42 10 75 4 33 9 68 11 78 2 10 6 45 9 78 4
33 8 69 10 79 2 10 7 50 10 87 4 37 9 75 10 83 2 8 6 48 10 87 4 40 8 81 10
90 2 10 4 24 4 31 1 9 12 5 34 -11 124 -91 381 -180 584 -202 61 -7 244 -6
293 0 368 51 679 283 798 595 28 75 40 118 48 165 3 22 9 56 13 75 3 19 6 62
6 95 l0 60 -330 0 -330 0 -3 -25 c-20 -204 -121 -301 -317 -303 -210 -3 -364
48 -481 160 -89 86 -131 156 -167 283 -14 52 -19 76 -32 175 -9 70 20 202 66
293 97 197 323 345 593 388 21 3 48 8 60 10 11 3 59 7 106 11 47 3 86 7 88 8
5 4 178 -4 226 -10z"/>
</g>
</svg>
